<svg id="Grupo_44" data-name="Grupo 44" xmlns="http://www.w3.org/2000/svg" xmlns:xlink="http://www.w3.org/1999/xlink" width="2743.479" height="1418.068" viewBox="0 0 2743.479 1418.068">
  <defs>
    <clipPath id="clip-path">
      <rect id="Rectángulo_17" data-name="Rectángulo 17" width="2743.479" height="1418.068" fill="#7c1f1f"/>
    </clipPath>
  </defs>
  <g id="Grupo_43" data-name="Grupo 43" clip-path="url(#clip-path)">
    <path id="Trazado_9" data-name="Trazado 9" d="M902.278,1394.636c-3.875-4.7-10.242-6.539-11.431-8.877-7-13.776-9.168-29.89-11.9-45.081-2.761-15.335-5.96-31.036-5.553-46.283.429-16.167,4.113-33.117,6.179-50.042,2.072-16.944,7.941-32.933,11.744-48.627,3.061-12.633,6.761-24.769,10.22-36.842,3.594-12.533-1.437-26.071-.961-38.767.454-12.111,8.9-26.7,3.3-39.656-3.406-7.888-16.966-10.264-21.583-17.6-7.49-11.9-15.826-27.045-25.408-42.232-8.739-13.851-10.621-32.278-17.178-46.915-7.387-16.493-11.813-30.66-11.388-45.641-.072-4.163.592-10.448,5.578-14.646,9.829-8.307,15.291-29.665,13.582-41.121-2.188-14.684-11.525-8.971-27.157-8.959-21.216.025-26.563-5.1-36.964-22.96-6.1-10.489-3.4-24.059-16.045-26.262-14.508-2.523-19.276.986-32.632-6.6-13.087-7.434-26.422-13-38.564-20.647-12.6-7.929-27.129-12.01-39.011-20.456-11.96-8.5-26.319-13.8-37.866-23.129-11.266-9.109-16.3-26.441-27.458-36.623-11.616-10.6-29.349-14.261-40.536-25.123-11.528-11.2-17.892-27.308-27.273-39.562-9.816-12.821-25.06-22.86-30.6-37.725-5.371-14.424-5.813-32.347-5.318-49.529.651-11.766,7.109-34.967.263-52.59-6.645-17.1-23.545-33.161-41.453-32.285-7.622.376-20.074,4.933-24.243-1.042-10.258-14.715,13.109-39.594.1-54.155a141.872,141.872,0,0,0-29.176-24.491,122.286,122.286,0,0,0-34.973-14.546c-11.7-2.767-23.924,6.436-35.913,9.331-12.148,2.927-25.251,8.577-38.636,16.571-13.469,8.048-26.819,15.858-36.711,23.11-14.17,10.376-31.533,22.941-49.441,22.9-1.337-20.565,20.1-35.631,4.589-55.548-2.908-3.731-17.676-26.713-21.536-26.813-6.379-1.609-14.336-52.815-15.26-59.345-3-21.241,1.747-39.149,9.1-50.887,8.589-13.713,25.887-17.125,42.987-21.62,14.659-3.853,30.551-7.365,47.328-7.2,16.634.163,33.33,1.277,48.314,2.889,12.868,1.384,25.733,2.836,38.6,4.263s26.272-2.088,39.127-.554,25.98,1.312,38.814,3,24.415,13.313,37.221,15.225c13.475,2.013,31.878-1.193,44.22-1.13,16.459.088,24.879-5.152-2.035-25.79-12.239-9.384-24.825-18.183-23.123-33.984,2.279-21.129,19.072-32.5,33.9-41.816a326.138,326.138,0,0,1,46.383-24.2c13.579-5.713,30.538-4.069,44.42-10.445,13.5-6.2,26.553-14.048,40.295-20.44,13.579-6.326,24.262-19.8,38.025-25.893s29.849-6.235,43.763-11.71C747.08,50,761.06,45.06,775.224,40.59c14.436-4.554,27.051-16.853,41.537-19.855,16.365-3.124,34.444,6.429,51.839,7.747,17.31,1.308,35.24-4.1,51.639-2.626,20.133,1.816,10.439,19.016-2.207,34.3C907.117,73.351,893.954,88.138,889.4,93.005c-8.53,9.106-21.983,19.6-32.019,31.427-10.633,12.543-21.8,29.057-15.444,44.12,5.346,12.674,23.567,17.116,36,26.124,12.054,8.733,20.484,23.088,30.172,31.834,9.087,7.171,21.626,9.91,30.513,17.313,8.927,7.44,13.153,20.387,21.52,28.381,16.69,15.945,11.359,25.076-4.038,39.378-11.156,10.449-7.306,19.257-21.827,23.151-19.98,5.353-41.65-2.964-41.973-3-16.856-1.7-42.167-9.243-43.034-25.245-.329-6.176,7.381-22.716,6.849-34.57-.507-11.178-10.126-22.885-28.729-13.651-14.681,7.309-8.314,27.06-7.037,40.5,1.274,13.457,2.31,22.972-14.771,29.774-15.022,5.982-29.981-1.953-45.41,3.271-19.463,6.6-32.848,28.178-24.86,46.014,6.436,14.383,17.2,24.265,31.155,27.467,14.161,3.249,34.266-3.03,42.68,8.029,6.217,8.176,2.93,24.584,10.69,31.512,21.414,19.1,23.154.848,23.423-20.252.266-20.475,5.575-46.061,5.569-50.274,0-9.8-4.852-18.424,8.483-19.87,10.793-1.168,26.275-7.581,42.58-2.983,12.8,3.606,26.444,10.589,39.841,16.925,13.031,6.166,27.076,12.261,38.382,20.34,12.737,9.1,24.2,20.559,31.684,31.2,9.375,13.316,5.387,27.855.814,41.916-5.453,16.768-14.618,31.856-28.954,43.168-15.548,12.273-32.319,22.863-47.867,35.136-11.419,9.012-24.653,13.691-33.183,22.647-8.836,9.278-12.878,23.285-19.629,36.251-5.5,10.546-15.031,20.118-23.07,30.961s-18.167,21.576-22.378,32.97c-4.495,12.167-3.584,27.2,3.822,40.3-2.83,2.858-3.418,6.163-7.663,6.163-11.165.013-13.751-1.772-21.223-14.393-13.369-16.743-6.542-22.027-44.561-22.015-28.729,0-41.65,1.174-56.24,27.151-7.7,13.707-6.742,39.825,7.2,50.349,16.471,12.446,35.625-6.4,50.443-14.99,5.356,2.792,9.657,10,15.012,12.8-1.268,11.1,4.21,21.745,3.994,32.92-.047,2.817-6.091,10.7-6.073,13.488,9.422-1.024,16.524-4.279,20.365,5.681,2.523,6.551,3.074,12.439,4.348,19.31,4.154,22.437,42.858,17.8,58.215,13.4,11.04-3.161,19.044-15.623,29.812-19.085,10.364-3.327,24.052,4.883,38.295,6.868,12.652,1.759,27.9-4.154,39.4.886,13.607,5.96,21.4,18.963,27.367,28.209,6.7,10.389,16.033,20.525,26.572,27.054,10.01,6.2,26.682,3.428,35.725,11.885,13.81,12.906,28.9,21.057,44.677,30.087,16.023,9.171,26.682,26.75,41,38.376,9.165,7.437,33.308,12.042,35.734,24.237,1.637,8.245-6.99,22.393-13.3,37.384-4.758,11.294-7.854,24.957-13.741,35.969-7.425,13.882-13.879,26.641-17.883,33.731-8.273,14.662-19.861,27.5-30.394,40.72-10.37,13.022-24.735,22.412-36.31,34.648-11.469,12.12-24.009,23.163-35.7,35.1-11.763,12.014-24.854,22.969-35.869,35.39-9.146,10.308-9.4,24.353-15.861,31.947-6.764,7.938-19.745,11.748-24.9,24.756-6.42,16.214-9.819,33.224-12.515,48.965-2.808,16.437,1.734,33.771-.11,50.321-2.238,20.08-9.243,28.885-17.8,27.3-6.526-1.214-13.929-9.713-25.085-23.248M2668,1241.342c-2.833-4.166-8.185-6.811-10.239-15.247-4.029-20.972-2.2-17.175,29.136-54.95,15.325-16.756,14.712-16.083,26.218-34.889,0-4.173-2.758-11.588-8.83-19.961-5.584-8.4-4-8.639-7.6-17.93.012-4.172,6.2-17.679,8.173-17.673,1.243,4.21,13.084,3.6,18.75,11.992,5.04,8.27-2.592,11.8-.041,21.223,3.85,14.192,11.269,12.583,12.74,27.242,2.263,21.417,1.966,32.172-.676,40.7-2.523,8.176-15.219,11.413-28.412,27.83-11.86,14.706-9.428,16.158-23.207,28.91-3,2.776-.836.917-4.849.917-6.245.006-5.76-2.98-11.982-3.525-.814-.069.823,5.365.823,5.365m-190.071,38c-10.58-4.166-23.4-7.152-33.177-14.18-11.688-8.4-20.337-19.52-26.835-24.825-10.975-8.955-26.469-20.935-40.22-22.625-.191,1.055-1.806,5.75-3.609,5.794-6.611,7.459-19.883,9-33.3,12.117a315.586,315.586,0,0,1-35.568,5.863c-36.692,4.063-33.649-8.245-33.731-34.5-.012-4.166,3.083-13.651-2.476-13.651-5.919-3.093-13.939,5.18-17.019-.936-.21-12.921-.56-26.491.072-36.8.67-10.855,9.9-16.887,19.639-26.682,14.7-14.812,32.069-28.194,48.652-41.14,9.81-7.656,20.042-18.014,32.807-25.273,12.33-7.008,24.96-8.686,38.138-10.276,13.419-1.621,27.473-7.491,39.813,1.69,16.94,12.621,30.056,22.105,31.239,22.105,1.637,0,7.638-2.911,8.417-11.3.823-12.533,3.268-15.391,4.454-19.592,2.808-9.948,18.637,14.029,20.4,16.045,13.892,15.857,26.391,34.366,38.514,51.626,6.93,9.866,19.122,17.454,25.752,28.15,6.839,11.043,2.823,25.185,1.722,38.3-1.23,14.643-3.562,36.251-9.312,49.926-5.816,13.826-19.37,28.043-31.186,39.954-11.4,11.5-24.081,17.717-43.184,10.2m-916.241-42.7c-15.676,1.6-32.044-1.449-39.287-21-7.628-20.578-12.984-42.129-20.039-62.888-4.345-12.809-12.953-22.985-17.761-34.441-4.883-11.638-5.769-24.434-3.227-38.8,3.036-17.106,12.768-34.2,11.707-51.516-.945-15.291-8.527-30.848-15.328-44.786-5.356-10.993-17.927-18.146-23.3-29.133-5.277-10.824-4.038-29.433-13.513-38.439-8.993-8.53-24-5.462-37.8-5.594-10.233-.1-21.088-.88-31.277-1.784-47.056-4.169-43.951-10.705-49.457-14.915-2.971-4.185-14.418-12.571-25.239-25.145-10.765-8.373-23.4-15.9-24.087-15.917-1.625-.031,3.694-48.455,3.431-51.751-1.734-21.385-13.435-46.054.507-64.9,6.167-8.345,15.933-15.714,24.866-23.486,8.777-7.625,21.5-10.164,29.618-16.637,10.179-8.132,20.96-15.757,30.863-24.221s17.1-17.814,27.057-26.2c16.014-4.7,15.372-6.7,31.884-8.805s17.012-10.4,33.559-8.705c5.675.576.254,12.615,4.191,16.912,7.353,8.408,15.651,5.015,15.66,13.356.006,6.317-10.173,10.229-5.569,14.324,9.475,8.426,14.95-3.171,26.772.886,12.975,4.223,22.788,11.056,24,11.043,1.268.013,11.507,3.368,17.786-5.018,6.323-4.191,8.577-8.376,10.035-8.376s9.66-5.785,14.574-1.609c4.232,2.557.106,14.249,4.914,15.153,17.545,3.293,18.274,3.143,36.075,4.191,17.7,1.036,24.469,9.647,38.664-1.427,8.9-6.93-16.875-15.945-18.093-15.945-1.2,0-10.452-25.4-17.695-17.723,1.1,16.756-16.756,15.491-19.028,15.5-1.565-.009-9.4-11.3-17.689-15.488-11.118-8.383-17.992-11.885-18.772-16.077-.56-4.176,5.472-13.885,4.2-22.287-2.154-12.565-10.736-13.275-24.484-30.012-28.181-33.543-25.145-34.028-28.669-34.016-1.722,4.179-7.66,3.431-7.647,7.616,6.21,13.864,9.685,11.735,18.831,24.312,14.621,20.963,16.634,24.368,14.674,28.6-4.016,8.367-17.557,24.8-19.147,24.816-1.552-.013-8.135-2.8-11.854-23.752-2.391-12.615-5.4-8.442-31.264-29.389-5.475-4.335-1.387-18.233-8.154-16.947-8.051,1.531-2.657,12.345-8.655,18.171-10.546,8.38-12.214,3.252-18.274-.961-4.054-1.18-5.046,8.977-9.253,8.977-1.136,0-18.193,6.238-37.343,27.239-9.841,8.63-32.138,37.891-42.157,30.488-10.64-7.869-9.081-28.306-10.145-40.639-2.435-28.378,15.078-22.443,38.63-22.468,12.446,2.179,2.019-23.12.563-27.79-1.556-4.952-1.646-13.995-1.43-19,.407-9.854,6.032-7.456,12.727-14.277,8.188-8.339,9.547-15.773,18.944-19.908,7.951-3.506,57.069-27.352,52.549-38.514-2.517-6.082-8.827-1.274-11-9.682-2.119-4.216,3.208-5.753,2.241-10.311,0-4.166,11.538-11.491,14.872-11.491,1.1,0,4.388,4.029,7.9,8.257,3.6,6.066-.767,15.983,5.922,17.454,15.5,3.412,16.427-12.452,32.235-13.488,16.665-1.092,17.5,10.07,34.084,8.054,1.064-4.185.88-12.818,1.969-17.031,1.039-4.191,2.492-1.143,6.12-3.246,15.8-9.175,14.586-10.843,31.486-17.551,18.794-8.408,34.52-18.991,34.914-18.985a7.842,7.842,0,0,1-7.218-3.331c-2.614-2.454.022-6.12-3.493-6.12-10.646.006-11.119-1.474-21.448,1.211-11.466,4.176-18.136,6.93-19.62,6.93-2.808-4.21-19.72-23.361-19.72-27.521,4.626-8.752,13.61-1.44,21.683-5.628,8.117-8.383,12.32-18.578,12.33-22.769-7.434-10.195-15.767-14.1-18.794-14.1-1.268,2.025-15.272,9.895-24.722,22.537-10.189,13.632-5.1,16.568-11.4,32.523-2.041,5.155-4.382,4.245-.5,8.42,3.612,4.138,14.1-.714,15.285,4.742,1.784,8.242-10.646,9.328-11.488,17.726-.839,8.379,4.645,8.035-.748,14.308-5.612,6.53-3.994,8.849-12.07,11.287-25.464,8.4-29.367,5.29-34.329-7.318-2.332-4.191-6.805-8.379-7.8-12.58,0,.025-38.085,8.236-41.265,5.641-9.522-7.816-.329-22.982,7.594-40.148,5.277-11.431,7.275-27.154,15.948-39.475,8.286-11.766,18.919-22.043,27.2-32.3,11.907-14.731,26.106-23.739,30.422-29.655,3.049-4.188,9.863-11.391,38.066-15.626,21.032-8.345,40.232-10.912,42.73-10.918,2.557,0,30.056,10.574,62.431,18.975,12.123,3.143,25.48,1.772,37.709,4.626,25.6,6,27.977,30.507,2.485,41.281-8.223,3.481-14.774-.923-24.221-.923-9.563,0-10.424-8.564-19.786-6.514-.013,4.176,3.85,18.994,11.309,23.176,7.609,7.594,5.224,12.014,14.358,17.479,3.7,2.213,7.832-11.485,7.857-11.5,11.888-6.677,25.78-9.4,36.607-17.435,10.843-8.051,17.861-22.659,29.583-29.568,11.385-6.7,27.045-2.554,40.207-5.453,12.352-2.726,34.62-1.193,45.306-7.716-3.465-8.117-12.486-19.67-18.227-26.666-11.657-14.192-19.078-15.012-8-30.522,11.19-15.638,21.921-33.937,33.674-49.341,15.645-9.544,38-4.842,38.025-4.855,8.978-4.6,40.846-31.389,43.059-7.907.729,7.775-10.276,12.693-17.654,16.368s-15.889,1.781-24,3.7c-16.055,3.8-23.558,22.155-34.256,33.43-8.943,9.422-15.939,9.744-12.386,23.251,3.885,14.784,10.383,23.492,22.863,29.374,7.581,3.575,24.863,9.741,33.387,9.691.707-.006.006-.545-2.4-4.736-2.367-4.173-6.4-2.689-7.5-7.328-.013-4.21,43.224-46.086,46.849-46.092,1.243,0,20.5,6.439,42.423,10.614,24.459,4.16,40.47,12.809,41.594,12.809,1.039,0,8.17-9.384,11.46-13.613,3.346-6.085.7-5.54,6.019-9.848,15.685-12.737,13.563-16.02,32.157-23.367,18.552-7.334,40.182-6.173,40.254-6.2,10.436-4.122,22.875-11.594,35.562-17.495,12.793-5.96,23.924-17.222,35.186-18.358,20.024-2.016,41.785,3.318,60.895,8.93,8.06,2.363,24.647.911,30.77,6.861,22.45,21.777-40.673,31.12-19.717,50.077,5.13,4.639,8.5,14.956,15.591,15.776,12.636,1.456,28.281,6.188,46.111,9.632,14.868,2.877,32.67-5.907,48.562-3.662,16.246,2.291,31.781,13.929,46.6,13.629,17.964-.369,35.844-4.539,47.6-11.91,8.154-5.108,14.02-35.193,23.439-36.366,17.708-2.188,12.555,42.777,26.078,42.79,16.24.025,32.125-3.988,47.892-1.456,15.885,2.545,32.46,1.7,48.155,5.234s30.741,9.966,46.53,12.9c17.216,3.205,33.809-2.958,51.088-4.7,14.083-1.415,33.1-1.922,42.849,10.214,6.908,8.611,7.944,24.885,8.357,38.42s-8.226,27.389-8.436,37.305c-.4,19.338,5.171,35.365-2.817,43.478-7.077,7.193-21.554,2.335-41.616,2.341-10.057,0-24.707,1.778-34.332,4.99-18.124,6.054-13.569,26.04-12.815,41.118a409.869,409.869,0,0,1-21.438,36.586c-5.309,6.99-15.016,28.553-27.414,24.287-8.693-3-7.807-19.423-9.087-26.3-2.551-13.626-4.417-24.415.892-35.5a255.146,255.146,0,0,1,17.939-32.372c-.012-4.176,2.075-4.176-53.028,4.241-23.667,2.911-24.613-2.282-47.685,3.957-16.565,4.482-29.536,18.753-29.549,18.759-9.315,4.739-26.3,2.924-33.518,10.568-36.213,38.439,37.437,19.945,37.869,21.454,1.221,4.2-1.787,17.651-1.381,34.388.664,14.7-.366,14.02-1.762,28.66-.319,3.274,4.185,4.921,1.127,5.731-5.259,1.4-5.659,4.285-11.087,4.288-12.48,0-10.361.423-13.97,13-1.985,8.286-9.869,13.46-11.557,13.673-9.923,1.28-24.328,10.129-35.43,20.356-12.577,11.578-26.109,28.654-23.066,37.747,2.8,8.392,11.128,12.521,9.516,16.712-3.612,4.207-35.5,23.357-37.985,23.42-5.894.15-10.417-33.336-16.4-37.215-7.713-5-15.663-3.756-19.047,5.049-.369,4.191-4.983,23.774-3.418,48.94,1.374,22.074-.495,38.874-8.968,50.978-9.234,13.191-27.568,15.673-43.995,24.588-13.607,7.384-28.588,15.717-44.2,25.126-3.6,2.169-7.569,7.184-9.541,10.737-9.146,16.584,23.749,34.266,18.371,49.04-2.357,6.486-31.5,22.431-39.281,22.418-1.136,0-5.763-2.676-10.677-11.056-6.78-16.806-10.12-17.307-13.156-17.307-6.279-.006-6.063.557-1.2,21.526,2.36,10.47,1.011,10.255,6.886,19.094,6.1,9.181,9.666,3.165,18.308,9.754,9.8,8.4,17.294,15.579,18.24,15.579,2.282,4.166-2.379,17.745-8.107,17.758-4.16,4.223-7.938,5.894-16.377,5.9-13.009-4.229-7.09-10.189-5.669-1.8,1.34,8.358.131,14.493,8.167,14.5,9.829-.013,16.252-2.319,22.816,18.653,3.5,8.4,3.988,27.849,5.159,27.855,1.64,0,13.028,8.254,27.937,12.433,18.089,8.376,26.319,8.264,27.095,12.449,2.047,4.182,5.387,20.572,3.368,20.578-.826-.006-15.848-8.314-33.2-12.474a79.964,79.964,0,0,0-32.441-.836c-10.176-.554-31.211-48.862-37.249-55.927-10.7-12.524-29.045-21.047-38.92-35.083-20.447-29.036,11.153-7.969,18.615-26.8,3.108-7.813-7.531-24.681-10.486-31.515-5.08-11.735-12.082-23.971-18.333-36.476-6.07-12.133-20.349-20.634-24.791-33.167a123.047,123.047,0,0,1-6.893-41.487c.335-23.558-11.829-18.672-15.929.623-1.753,8.383,5.9,14.083.573,20.622-9.481,11.644-27.311,11.942-28.832,12.984-13.623,9.3-16,20.262-18.459,31-2.839,12.374-6.176,23.53-15.26,34.31-10.7,12.69-19.489,9.872-29.627,5.506-10.508-4.526-21.091-10.32-24.588-23.116a143.263,143.263,0,0,0-15.607-37.24c-7.115-11.6-18.127-21.251-18.133-35.706,0-19.755.188-28.156-20.5-33-12.182-2.855-26.519-2.607-40.47-6.035-13.134-3.23-26.2-8.264-39.465-10.389-14.126-2.257-27.984-5.925-40.633-5.115-13.125.842-11.926,3.13-6.664,16.114,2.714,6.674,9.791,10.5,15.062,15.657,15.782,15.485,12.345.62,28.844,4.611,5.271,1.271,7.838,13.406,11.137,17.435,7.437,9.1,22.105,7.844,17.754,20.913-3.349,10-21.354,23.99-29.733,30.813-5.287,4.3-21,4.407-34.87,8.68-14.4,4.439-29.123,14.411-34.992,9.491-5.406-4.526-7.76-12.571-10.846-18.712-5.738-11.444-15.764-20.543-21.508-31.99s-3.352-27.326-9.1-38.77-10.4-23.476-16.146-34.92c-4.041-8.044-14.884-16.518-24.318-15.3-6.238.8-11.923,7.528-12.953,13.338a41.573,41.573,0,0,0,1.243,18.5,466.949,466.949,0,0,0,24.766,61.968c8.884,18.481,22.841,34.072,39.259,47.328,10.724,8.667,23.42,14.518,37.684,15.629,7.794.61,27.7-2.476,32.907,6.292,5.6,9.441-4.6,18.769-16.236,32.1-10.8,12.37-15.92,31.283-21.216,37.459-9.146,10.668-22.763,20-31.2,33.562-8.649,13.9-21.736,27.417-23.289,41.872-1.859,17.291,9.416,31.928,9.685,46.32.25,13.532-8.89,25.317-17.019,42.329-6.223,13.025-7.221,29.064-14.026,42.079-6.73,12.871-15.858,24.35-23.946,36.454-8.01,11.979-20.456,19.464-30.566,29.965-6.423,6.677-13.071,17.648-24.506,24.062-10.386,5.819-21.288,10.054-32.059,11.153m60.237-640.469c13.832-12.586,12.3-16.455,55.99-12.267,15.66,4.179,28.835,6.971,29.755,6.958s-4.955-7.456-10.68-20.036c-10.868-16.784-13.432-22.437-25.627-22.431-5.19,0-8.974.351-8.962,8.721.013,8.417,1.406,5.234-9.021,5.234-5.033.006-11.867,6.5-19.135-1.916-4.73-6.094.131-24.046-6.965-21.454-11.578,4.229-1.117,19.323-8.642,29.433-7.785,8.367-14.85,13.907-14.837,18.111-.013,4.185,1.327,21.817,3.2,21.827,1.03,0,8.855-4.592,15.466-8.771.77-.285-.545-3.409-.545-3.409m249.478-3.859c1.052-.013-1.027-9.7-1.756-13.914-.629-4.179,4.476-6.116,1.446-8.927-2.936-2.72-4.06,2.385-7.985,2.388-8.98,0-10.326-2.182-8.245,14.615,1.23,8.367,1.959,11.854,8.117,11.848,3.587-.006,7.384-6.022,8.423-6.01M447.87,1136.378c-6.739-4.182-15.194-8.3-15.2-12.471,4.933-8.007,10-6.871,15.81-11.056,2.792-2.06,2.013-6.555,5.425-6.555,6.354-.006,6.542,3.086,11.888,6.667,6.7,8.411,9.816,13.923,10.449,13.917,1.371,4.179-9.168,16.214-13.9,16.214-1.643,0-7.7-2.5-14.474-6.717m1285.37,6.461c-10.5-8.336-22.744-14.455-23.223-14.455-.908-4.226,11.281-42.689,14.042-46.906,2.2-4.191,40.254-35.856,42.586-35.862,4.342,0,14.9,10.577,14.928,14.756-.006,2.082-9.093,23.4-15.682,45.6-6.808,22.938-13.222,44.793-14.518,44.793-1.794,4.185-3.547.52-18.133-7.926M392.4,1098.666a166.733,166.733,0,0,1-15.861-11.381c.354-4.166,20.794-28.873,23.038-28.885,2.554.006,31.208,38.752,30.122,38.752-1.646,4.226-19.917,11.037-22.741,11.043-1.43,0-6.145-6.473-13.134-10.7-.61-.567-1.424,1.167-1.424,1.167m2067.019-84.753c-7.077-1.74-15.094.717-22.171-1.03-10.749-2.648-20.994-8.1-30.488-13.519s-19.686-13.469-21.345-23.733c-2.93-18.121,10.6-23.461,26.954-22.825,11.685.457,24.938,7.005,38.173,11.028,16.261,4.936,31.264,10.364,38.235,12.258,11.585,3.149,27.781-.466,36.4,7.415,8.633,7.888,4.761,21.727-2.82,30.5-8.871,10.258-22.806,16.361-36.46,13-9.287-2.3-17.185-10.8-26.475-13.09m-145.193-30.9c-2.429-.006-7.885-.363-6.786-3.431,8.674-24.127,22.6-45.078,24.2-45.075,2.047-4.226,24.158-1.427,26.165,2.764.814-.006-6.461,13.67-13.288,26.29-12.064,20.972-11.347,17.642-18.174,17.648-5.882-.786-6.276,1.8-12.12,1.8m-61.114-8.295c-10.424-4.216-22.224-2.057-22.619-6.229-.419,0,2.654-8.918,3.431-21.489.742-10.489-5.212-12.74-.479-22.024,6.689-13.122,21.545-18.991,22.262-19.726,8.555-8.73,21.789-5.756,33.7-.948,13.319,5.371,21.658,12.148,15.607,24.453-5.969,12.74,1.562,16.487-5.265,29.051-14.468,29.383-17.276,25.295-46.64,16.912M258.031,767.458a43.361,43.361,0,0,0-24.015-8.58c-1.193.006-7.9-2.783-14.646,1.384-6.689,4.223-13.582,10.849-15.3,10.849-2.16,0-18.872-12.633-35.643-22.922-17.379-10.661-31.727-22.675-32.385-22.675-1.18-4.226,1.884-13.319,4.307-17.51.88,0,18.531,1.418,39.966,9.785,21.417,8.414,38.357,27.608,39.763,27.593,1.424.016,6.611-14.2,14.089-18.38,7.528-4.191,16.966-7.184,18.377-7.177,3.844,0,17.651,23,35.114,43.963,0,4.151-5.772,12.646-8.063,12.652-.9,0-10.095-.614-21.567-8.98M839.618,754.4a81.544,81.544,0,0,0-24.578-4.116c-1.884,0,1.975-23.426,4.407-23.426,1.853-4.235,48.574,10.73,51.119,10.724,2,4.173-3.459,18.168-6.846,18.168-1.446,4.226-9.112,1.221-23.326-3-.761-.322-.776,1.646-.776,1.646m1625.764-26.146c-4.842-16.731-10.023-35.631-9.246-35.625,3.215,0,3.215,2.817,6.432,2.817,3.634,0,10.586,6.811,21.069,23.592,7.628,8.386,6,11.291,12.083,22.481.394,0-18.18,13.087-20.628,13.087-1.208.006-4.485-9.6-9.71-26.353M71.331,700.886c-2.529-4.2-20.115-32.616-20.105-36.792-.016-4.229,7.663.2,30.823,8.53,12.539,4.179,24.6,8.743,24.262,8.743-.682,4.185-30.519,20.08-33.233,20.08-1.568,0-.222-2.085-1.625-2.82-.732-.372-.122,2.26-.122,2.26M2386.714,685.98c-4.8-8.392-12.715-12.211-12.273-12.211.394-4.176,17.4-11.929,34.294-20.29,17.288-12.615,32.137-23.4,33.308-23.4,1.615,0,7.528-14.436,13.181-31.236,5.6-16.75,10.924-30.122,12.18-30.128,1.984-.013,4.661-.923,18.387,7.478,9.638,8.389,24.162,8.073,24.556,8.079.407,2.207-18.559,18.146-28.525,35.193-9.062,15.5-10.145,36.767-13.206,40.758-1.211,2.078-19.917,11.194-36.482,20.055-16.828,9.012-35.136,9.929-36.77,9.923-.369.006-1.045-2.263-6.3-6.454-.51-.667-2.345,2.232-2.345,2.232m134.854-130.46c-4.423-4.179-7.353-9.243-4.914-9.243,3.215-4.176,43.231-18.643,46.448-18.65,3.249,0,11.932,2.532,18.96,10.887,0,4.216-48.718,26.337-53.917,26.337-1.208.006-1.634-4.98-4.442-9.134-.263-.823-2.116-.185-2.135-.2m-1167.175-58.7c-.6.006-.986-7.973,1.8-12.151,6.407-12.621,8.667-15.685,1.3-19.83-3.371-4.191-11.262-10.868-15.66-15.053-4.06-4.107-6.874-4.044-6.182-9.894.98-8.292,7.4-4.076,12.693-10.339,7.243-8.345,6.138-13.1,7.7-8.88,1.255.013,11.885,4.626,14.85,13.031,4.855,12.58-1.471,18.975,11.788,31.583,7.2,6.467,17.736-2.889,22.34,5.775,2.952,5.55-1.878,8.874-2.523,15.188-.789,8.354-9.325,9.65-10.508,9.65-1.258,4.216-6.761,1.841-17.307,1.847-14.681.006-16.809,4.592-17.61.379-.119-.842-2.686-1.305-2.686-1.305M3.841,364.586C3.034,364.586.1,347.5,0,324.432c-.059-13.547,2.7-28.569,2.855-42.11.272-23.066.648-44.092,1.465-44.092.676,0,13.986,8.029,33.374,15.375,9.976,3.784,20.371,11.009,32.579,15.285,16.5,6.952,16.421,6.971,32.776,14.3s20.772-1.853,36.351,7.124c4.748,2.736-2.927,11.757.178,16.4,3.966,8.392,12.336,13.842,12.374,18.033-24.641,2.094-25.082-1.784-49.8-1.772-47.322.031-51.344-7.7-60.221-3.5-5.18.013-12.965,3.769-12.793,9.187.26,8.273,7.772,10.536,13.328,14.715a19.066,19.066,0,0,0,10.646,3.96c-.579-.013-10.032,12.9-22.6,17.081-24.6,8.4-25.608,6.323-27.458,2.147-.257-.808.789-1.975.789-1.975M1086.316,360.4c-9.851-4.022-23-11.751-35.214-30.795-12.874-20.991-21.914-43.6-22.54-43.6-.729.006-7.71-24.547-13.053-53.917-3.284-15.441-3.421-34.789-10.445-50.609-6.689-15.072-17.053-30.785-36.435-35.086-15.394-3.418-25.874,14-42.045,8.226-29.536-10.542-24.807-35.474-10.89-54.431,7.328-9.982,23.93-15.742,33.092-27.464s12.846-30.335,24.071-36.351c10.618-5.7,25.523-4.964,37.481-6.674,15.879-2.257,32.748,3.493,48.658,1.44s31.8-4.1,47.713-6.076c15.21-1.9,30.172-6.026,45.381-7.963s30.788-.332,46.011-2.163c16.346-1.972,31.3-14.283,46.53-14.881,15.632-.614,31.28,3.587,45.954,13.911,11.948,8.4,23.073,21.367,32.76,30.92,11.491,11.325,15.075,15.717-1.668,31.051-20.831,19.044-20.243,35.909-22.49,63.017-1.759,20.991.423,42.6-.61,42.589-1.02,4.188-11.1,27.624-26.847,52.8-9.034,15.829-22.6,20.628-30.51,29.148-8.057,8.683-13.322,22.384-30.475,28.619-13.322,4.846-29.424,4.022-42.045,10.843-13,7.03-19.3,21.467-28.193,32.983-18.725,24.221-37.565,31.236-54.19,24.456m146.035-1.365c-6.217-7.481-16.693-17.166-12.856-25.946,2.933-6.7,18.38-10.978,32.222-13.961,13.46-2.9,28.538-5.537,34.617-2.241,5.422,2.949,15.316,14.033,16.8,19.839,2.989,11.679-16.937,20.474-25.007,26.425-16.164,11.923-28.081,14.552-41.4-1.164-1.042-1.221-3.218-1.556-4.379-2.952" transform="translate(-0.001 -0.001)" fill="#a8cf44"/>
  </g>
</svg>
