<?xml version="1.0" encoding="utf-8"?>
<!-- Generator: Adobe Illustrator 27.4.1, SVG Export Plug-In . SVG Version: 6.00 Build 0)  -->
<svg version="1.1" id="Grupo_44" xmlns="http://www.w3.org/2000/svg" xmlns:xlink="http://www.w3.org/1999/xlink" x="0px" y="0px"
	 viewBox="0 0 2743.5 1418.1" style="enable-background:new 0 0 2743.5 1418.1;" xml:space="preserve">

<style type="text/css">
	.st0{clip-path:url(#SVGID_00000170238467231858942020000012996553723828227472_);}
	.st1{fill:#A8CF44;}
</style>
<g>
	
		<image style="overflow:visible;" width="2804" height="1479" xlink:href="8436D68734FAC0BA.png"  transform="matrix(1 0 0 1 -20 -15.932)">
	</image>
	<g>
		<g>
			<defs>
				<rect id="SVGID_1_" width="2743.5" height="1418.1"/>
			</defs>
			<clipPath id="SVGID_00000101823481878607494770000000494095609927319469_">
				<use xlink:href="#SVGID_1_"  style="overflow:visible;"/>
			</clipPath>
		</g>
		<g>
			<defs>
				<rect id="SVGID_00000173854637505462869200000005936222073964268931_" width="2743.5" height="1418.1"/>
			</defs>
			<clipPath id="SVGID_00000088129828317968050530000011207766466010194105_">
				<use xlink:href="#SVGID_00000173854637505462869200000005936222073964268931_"  style="overflow:visible;"/>
			</clipPath>
			
				<g id="Grupo_43_00000070819804429461290420000002651591775926888082_" style="clip-path:url(#SVGID_00000088129828317968050530000011207766466010194105_);">
				<path id="Trazado_9_00000147920845320929224070000005727455831718248631_" class="st1" d="M902.3,1394.6
					c-3.9-4.7-10.2-6.5-11.4-8.9c-7-13.8-9.2-29.9-11.9-45.1c-2.8-15.3-6-31-5.6-46.3c0.4-16.2,4.1-33.1,6.2-50
					c2.1-16.9,7.9-32.9,11.7-48.6c3.1-12.6,6.8-24.8,10.2-36.8c3.6-12.5-1.4-26.1-1-38.8c0.5-12.1,8.9-26.7,3.3-39.7
					c-3.4-7.9-17-10.3-21.6-17.6c-7.5-11.9-15.8-27-25.4-42.2c-8.7-13.9-10.6-32.3-17.2-46.9c-7.4-16.5-11.8-30.7-11.4-45.6
					c-0.1-4.2,0.6-10.4,5.6-14.6c9.8-8.3,15.3-29.7,13.6-41.1c-2.2-14.7-11.5-9-27.2-9c-21.2,0-26.6-5.1-37-23
					c-6.1-10.5-3.4-24.1-16-26.3c-14.5-2.5-19.3,1-32.6-6.6c-13.1-7.4-26.4-13-38.6-20.6c-12.6-7.9-27.1-12-39-20.5
					c-12-8.5-26.3-13.8-37.9-23.1c-11.3-9.1-16.3-26.4-27.5-36.6c-11.6-10.6-29.3-14.3-40.5-25.1c-11.5-11.2-17.9-27.3-27.3-39.6
					c-9.8-12.8-25.1-22.9-30.6-37.7c-5.4-14.4-5.8-32.3-5.3-49.5c0.7-11.8,7.1-35,0.3-52.6c-6.6-17.1-23.5-33.2-41.5-32.3
					c-7.6,0.4-20.1,4.9-24.2-1c-10.3-14.7,13.1-39.6,0.1-54.2c-8.6-9.4-18.4-17.7-29.2-24.5c-10.8-6.6-22.6-11.5-35-14.5
					c-11.7-2.8-23.9,6.4-35.9,9.3c-12.1,2.9-25.3,8.6-38.6,16.6c-13.5,8-26.8,15.9-36.7,23.1c-14.2,10.4-31.5,22.9-49.4,22.9
					c-1.3-20.6,20.1-35.6,4.6-55.5c-2.9-3.7-17.7-26.7-21.5-26.8c-6.4-1.6-14.3-52.8-15.3-59.3c-3-21.2,1.7-39.1,9.1-50.9
					c8.6-13.7,25.9-17.1,43-21.6c14.7-3.9,30.6-7.4,47.3-7.2c16.6,0.2,33.3,1.3,48.3,2.9c12.9,1.4,25.7,2.8,38.6,4.3
					s26.3-2.1,39.1-0.6s26,1.3,38.8,3s24.4,13.3,37.2,15.2c13.5,2,31.9-1.2,44.2-1.1c16.5,0.1,24.9-5.2-2-25.8
					c-12.2-9.4-24.8-18.2-23.1-34c2.3-21.1,19.1-32.5,33.9-41.8c14.8-9.3,30.3-17.4,46.4-24.2c13.6-5.7,30.5-4.1,44.4-10.4
					c13.5-6.2,26.6-14,40.3-20.4c13.6-6.3,24.3-19.8,38-25.9S719.1,61,733,55.5c14.1-5.5,28.1-10.5,42.2-14.9
					c14.4-4.6,27.1-16.9,41.5-19.9c16.4-3.1,34.4,6.4,51.8,7.7c17.3,1.3,35.2-4.1,51.6-2.6c20.1,1.8,10.4,19-2.2,34.3
					c-10.9,13.2-24.1,28-28.6,32.8c-8.5,9.1-22,19.6-32,31.4c-10.6,12.5-21.8,29.1-15.4,44.1c5.3,12.7,23.6,17.1,36,26.1
					c12.1,8.7,20.5,23.1,30.2,31.8c9.1,7.2,21.6,9.9,30.5,17.3c8.9,7.4,13.2,20.4,21.5,28.4c16.7,15.9,11.4,25.1-4,39.4
					c-11.2,10.4-7.3,19.3-21.8,23.2c-20,5.4-41.7-3-42-3c-16.9-1.7-42.2-9.2-43-25.2c-0.3-6.2,7.4-22.7,6.8-34.6
					c-0.5-11.2-10.1-22.9-28.7-13.7c-14.7,7.3-8.3,27.1-7,40.5c1.3,13.5,2.3,23-14.8,29.8c-15,6-30-2-45.4,3.3
					c-19.5,6.6-32.8,28.2-24.9,46c6.4,14.4,17.2,24.3,31.2,27.5c14.2,3.2,34.3-3,42.7,8c6.2,8.2,2.9,24.6,10.7,31.5
					c21.4,19.1,23.2,0.8,23.4-20.3c0.3-20.5,5.6-46.1,5.6-50.3c0-9.8-4.9-18.4,8.5-19.9c10.8-1.2,26.3-7.6,42.6-3
					c12.8,3.6,26.4,10.6,39.8,16.9c13,6.2,27.1,12.3,38.4,20.3c12.7,9.1,24.2,20.6,31.7,31.2c9.4,13.3,5.4,27.9,0.8,41.9
					c-5.5,16.8-14.6,31.9-29,43.2c-15.5,12.3-32.3,22.9-47.9,35.1c-11.4,9-24.7,13.7-33.2,22.6c-8.8,9.3-12.9,23.3-19.6,36.3
					c-5.5,10.5-15,20.1-23.1,31s-18.2,21.6-22.4,33c-4.5,12.2-3.6,27.2,3.8,40.3c-2.8,2.9-3.4,6.2-7.7,6.2
					c-11.2,0-13.8-1.8-21.2-14.4c-13.4-16.7-6.5-22-44.6-22c-28.7,0-41.7,1.2-56.2,27.2c-7.7,13.7-6.7,39.8,7.2,50.3
					c16.5,12.4,35.6-6.4,50.4-15c5.4,2.8,9.7,10,15,12.8c-1.3,11.1,4.2,21.7,4,32.9c0,2.8-6.1,10.7-6.1,13.5
					c9.4-1,16.5-4.3,20.4,5.7c2.5,6.6,3.1,12.4,4.3,19.3c4.2,22.4,42.9,17.8,58.2,13.4c11-3.2,19-15.6,29.8-19.1
					c10.4-3.3,24.1,4.9,38.3,6.9c12.7,1.8,27.9-4.2,39.4,0.9c13.6,6,21.4,19,27.4,28.2c6.7,10.4,16,20.5,26.6,27.1
					c10,6.2,26.7,3.4,35.7,11.9c13.8,12.9,28.9,21.1,44.7,30.1c16,9.2,26.7,26.8,41,38.4c9.2,7.4,33.3,12,35.7,24.2
					c1.6,8.2-7,22.4-13.3,37.4c-4.8,11.3-7.9,25-13.7,36c-7.4,13.9-13.9,26.6-17.9,33.7c-8.3,14.7-19.9,27.5-30.4,40.7
					c-10.4,13-24.7,22.4-36.3,34.6c-11.5,12.1-24,23.2-35.7,35.1c-11.8,12-24.9,23-35.9,35.4c-9.1,10.3-9.4,24.4-15.9,31.9
					c-6.8,7.9-19.7,11.7-24.9,24.8c-6.4,16.2-9.8,33.2-12.5,49c-2.8,16.4,1.7,33.8-0.1,50.3c-2.2,20.1-9.2,28.9-17.8,27.3
					C920.8,1416.7,913.4,1408.2,902.3,1394.6 M2668,1241.3c-2.8-4.2-8.2-6.8-10.2-15.2c-4-21-2.2-17.2,29.1-54.9
					c15.3-16.8,14.7-16.1,26.2-34.9c0-4.2-2.8-11.6-8.8-20c-5.6-8.4-4-8.6-7.6-17.9c0-4.2,6.2-17.7,8.2-17.7
					c1.2,4.2,13.1,3.6,18.8,12c5,8.3-2.6,11.8,0,21.2c3.9,14.2,11.3,12.6,12.7,27.2c2.3,21.4,2,32.2-0.7,40.7
					c-2.5,8.2-15.2,11.4-28.4,27.8c-11.9,14.7-9.4,16.2-23.2,28.9c-3,2.8-0.8,0.9-4.8,0.9c-6.2,0-5.8-3-12-3.5
					C2666.4,1235.9,2668,1241.3,2668,1241.3 M2477.9,1279.3c-10.6-4.2-23.4-7.2-33.2-14.2c-11.7-8.4-20.3-19.5-26.8-24.8
					c-11-9-26.5-20.9-40.2-22.6c-0.2,1.1-1.8,5.8-3.6,5.8c-6.6,7.5-19.9,9-33.3,12.1c-11.7,2.6-23.6,4.6-35.6,5.9
					c-36.7,4.1-33.6-8.2-33.7-34.5c0-4.2,3.1-13.7-2.5-13.7c-5.9-3.1-13.9,5.2-17-0.9c-0.2-12.9-0.6-26.5,0.1-36.8
					c0.7-10.9,9.9-16.9,19.6-26.7c14.7-14.8,32.1-28.2,48.7-41.1c9.8-7.7,20-18,32.8-25.3c12.3-7,25-8.7,38.1-10.3
					c13.4-1.6,27.5-7.5,39.8,1.7c16.9,12.6,30.1,22.1,31.2,22.1c1.6,0,7.6-2.9,8.4-11.3c0.8-12.5,3.3-15.4,4.5-19.6
					c2.8-9.9,18.6,14,20.4,16c13.9,15.9,26.4,34.4,38.5,51.6c6.9,9.9,19.1,17.5,25.8,28.2c6.8,11,2.8,25.2,1.7,38.3
					c-1.2,14.6-3.6,36.3-9.3,49.9c-5.8,13.8-19.4,28-31.2,40C2509.7,1280.6,2497,1286.9,2477.9,1279.3 M1561.7,1236.6
					c-15.7,1.6-32-1.4-39.3-21c-7.6-20.6-13-42.1-20-62.9c-4.3-12.8-13-23-17.8-34.4c-4.9-11.6-5.8-24.4-3.2-38.8
					c3-17.1,12.8-34.2,11.7-51.5c-0.9-15.3-8.5-30.8-15.3-44.8c-5.4-11-17.9-18.1-23.3-29.1c-5.3-10.8-4-29.4-13.5-38.4
					c-9-8.5-24-5.5-37.8-5.6c-10.2-0.1-21.1-0.9-31.3-1.8c-47.1-4.2-44-10.7-49.5-14.9c-3-4.2-14.4-12.6-25.2-25.1
					c-10.8-8.4-23.4-15.9-24.1-15.9c-1.6,0,3.7-48.5,3.4-51.8c-1.7-21.4-13.4-46.1,0.5-64.9c6.2-8.3,15.9-15.7,24.9-23.5
					c8.8-7.6,21.5-10.2,29.6-16.6c10.2-8.1,21-15.8,30.9-24.2s17.1-17.8,27.1-26.2c16-4.7,15.4-6.7,31.9-8.8s17-10.4,33.6-8.7
					c5.7,0.6,0.3,12.6,4.2,16.9c7.4,8.4,15.7,5,15.7,13.4c0,6.3-10.2,10.2-5.6,14.3c9.5,8.4,14.9-3.2,26.8,0.9
					c13,4.2,22.8,11.1,24,11c1.3,0,11.5,3.4,17.8-5c6.3-4.2,8.6-8.4,10-8.4s9.7-5.8,14.6-1.6c4.2,2.6,0.1,14.2,4.9,15.2
					c17.5,3.3,18.3,3.1,36.1,4.2c17.7,1,24.5,9.6,38.7-1.4c8.9-6.9-16.9-15.9-18.1-15.9c-1.2,0-10.5-25.4-17.7-17.7
					c1.1,16.8-16.8,15.5-19,15.5c-1.6,0-9.4-11.3-17.7-15.5c-11.1-8.4-18-11.9-18.8-16.1c-0.6-4.2,5.5-13.9,4.2-22.3
					c-2.2-12.6-10.7-13.3-24.5-30c-28.2-33.5-25.1-34-28.7-34c-1.7,4.2-7.7,3.4-7.6,7.6c6.2,13.9,9.7,11.7,18.8,24.3
					c14.6,21,16.6,24.4,14.7,28.6c-4,8.4-17.6,24.8-19.1,24.8c-1.6,0-8.1-2.8-11.9-23.8c-2.4-12.6-5.4-8.4-31.3-29.4
					c-5.5-4.3-1.4-18.2-8.2-16.9c-8.1,1.5-2.7,12.3-8.7,18.2c-10.5,8.4-12.2,3.3-18.3-1c-4.1-1.2-5,9-9.3,9
					c-1.1,0-18.2,6.2-37.3,27.2c-9.8,8.6-32.1,37.9-42.2,30.5c-10.6-7.9-9.1-28.3-10.1-40.6c-2.4-28.4,15.1-22.4,38.6-22.5
					c12.4,2.2,2-23.1,0.6-27.8c-1.6-5-1.6-14-1.4-19c0.4-9.9,6-7.5,12.7-14.3c8.2-8.3,9.5-15.8,18.9-19.9c8-3.5,57.1-27.4,52.5-38.5
					c-2.5-6.1-8.8-1.3-11-9.7c-2.1-4.2,3.2-5.8,2.2-10.3c0-4.2,11.5-11.5,14.9-11.5c1.1,0,4.4,4,7.9,8.3c3.6,6.1-0.8,16,5.9,17.5
					c15.5,3.4,16.4-12.5,32.2-13.5c16.7-1.1,17.5,10.1,34.1,8.1c1.1-4.2,0.9-12.8,2-17c1-4.2,2.5-1.1,6.1-3.2
					c15.8-9.2,14.6-10.8,31.5-17.6c18.8-8.4,34.5-19,34.9-19c-2.8,0.3-5.6-1-7.2-3.3c-2.6-2.5,0-6.1-3.5-6.1
					c-10.6,0-11.1-1.5-21.4,1.2c-11.5,4.2-18.1,6.9-19.6,6.9c-2.8-4.2-19.7-23.4-19.7-27.5c4.6-8.8,13.6-1.4,21.7-5.6
					c8.1-8.4,12.3-18.6,12.3-22.8c-7.4-10.2-15.8-14.1-18.8-14.1c-1.3,2-15.3,9.9-24.7,22.5c-10.2,13.6-5.1,16.6-11.4,32.5
					c-2,5.2-4.4,4.2-0.5,8.4c3.6,4.1,14.1-0.7,15.3,4.7c1.8,8.2-10.6,9.3-11.5,17.7c-0.8,8.4,4.6,8-0.7,14.3
					c-5.6,6.5-4,8.8-12.1,11.3c-25.5,8.4-29.4,5.3-34.3-7.3c-2.3-4.2-6.8-8.4-7.8-12.6c0,0-38.1,8.2-41.3,5.6
					c-9.5-7.8-0.3-23,7.6-40.1c5.3-11.4,7.3-27.2,15.9-39.5c8.3-11.8,18.9-22,27.2-32.3c11.9-14.7,26.1-23.7,30.4-29.7
					c3-4.2,9.9-11.4,38.1-15.6c21-8.3,40.2-10.9,42.7-10.9c2.6,0,30.1,10.6,62.4,19c12.1,3.1,25.5,1.8,37.7,4.6
					c25.6,6,28,30.5,2.5,41.3c-8.2,3.5-14.8-0.9-24.2-0.9c-9.6,0-10.4-8.6-19.8-6.5c0,4.2,3.8,19,11.3,23.2
					c7.6,7.6,5.2,12,14.4,17.5c3.7,2.2,7.8-11.5,7.9-11.5c11.9-6.7,25.8-9.4,36.6-17.4c10.8-8.1,17.9-22.7,29.6-29.6
					c11.4-6.7,27-2.6,40.2-5.5c12.4-2.7,34.6-1.2,45.3-7.7c-3.5-8.1-12.5-19.7-18.2-26.7c-11.7-14.2-19.1-15-8-30.5
					c11.2-15.6,21.9-33.9,33.7-49.3c15.6-9.5,38-4.8,38-4.9c9-4.6,40.8-31.4,43.1-7.9c0.7,7.8-10.3,12.7-17.7,16.4s-15.9,1.8-24,3.7
					c-16.1,3.8-23.6,22.2-34.3,33.4c-8.9,9.4-15.9,9.7-12.4,23.3c3.9,14.8,10.4,23.5,22.9,29.4c7.6,3.6,24.9,9.7,33.4,9.7
					c0.7,0,0-0.5-2.4-4.7c-2.4-4.2-6.4-2.7-7.5-7.3c0-4.2,43.2-46.1,46.8-46.1c1.2,0,20.5,6.4,42.4,10.6
					c24.5,4.2,40.5,12.8,41.6,12.8c1,0,8.2-9.4,11.5-13.6c3.3-6.1,0.7-5.5,6-9.8c15.7-12.7,13.6-16,32.2-23.4
					c18.6-7.3,40.2-6.2,40.3-6.2c10.4-4.1,22.9-11.6,35.6-17.5c12.8-6,23.9-17.2,35.2-18.4c20-2,41.8,3.3,60.9,8.9
					c8.1,2.4,24.6,0.9,30.8,6.9c22.4,21.8-40.7,31.1-19.7,50.1c5.1,4.6,8.5,15,15.6,15.8c12.6,1.5,28.3,6.2,46.1,9.6
					c14.9,2.9,32.7-5.9,48.6-3.7c16.2,2.3,31.8,13.9,46.6,13.6c18-0.4,35.8-4.5,47.6-11.9c8.2-5.1,14-35.2,23.4-36.4
					c17.7-2.2,12.6,42.8,26.1,42.8c16.2,0,32.1-4,47.9-1.5c15.9,2.5,32.5,1.7,48.2,5.2c15.7,3.5,30.7,10,46.5,12.9
					c17.2,3.2,33.8-3,51.1-4.7c14.1-1.4,33.1-1.9,42.8,10.2c6.9,8.6,7.9,24.9,8.4,38.4s-8.2,27.4-8.4,37.3
					c-0.4,19.3,5.2,35.4-2.8,43.5c-7.1,7.2-21.6,2.3-41.6,2.3c-10.1,0-24.7,1.8-34.3,5c-18.1,6.1-13.6,26-12.8,41.1
					c-6.5,12.6-13.7,24.8-21.4,36.6c-5.3,7-15,28.6-27.4,24.3c-8.7-3-7.8-19.4-9.1-26.3c-2.6-13.6-4.4-24.4,0.9-35.5
					c5.2-11.2,11.2-22,17.9-32.4c0-4.2,2.1-4.2-53,4.2c-23.7,2.9-24.6-2.3-47.7,4c-16.6,4.5-29.5,18.8-29.5,18.8
					c-9.3,4.7-26.3,2.9-33.5,10.6c-36.2,38.4,37.4,19.9,37.9,21.5c1.2,4.2-1.8,17.7-1.4,34.4c0.7,14.7-0.4,14-1.8,28.7
					c-0.3,3.3,4.2,4.9,1.1,5.7c-5.3,1.4-5.7,4.3-11.1,4.3c-12.5,0-10.4,0.4-14,13c-2,8.3-9.9,13.5-11.6,13.7
					c-9.9,1.3-24.3,10.1-35.4,20.4c-12.6,11.6-26.1,28.7-23.1,37.7c2.8,8.4,11.1,12.5,9.5,16.7c-3.6,4.2-35.5,23.4-38,23.4
					c-5.9,0.2-10.4-33.3-16.4-37.2c-7.7-5-15.7-3.8-19,5c-0.4,4.2-5,23.8-3.4,48.9c1.4,22.1-0.5,38.9-9,51
					c-9.2,13.2-27.6,15.7-44,24.6c-13.6,7.4-28.6,15.7-44.2,25.1c-3.6,2.2-7.6,7.2-9.5,10.7c-9.1,16.6,23.7,34.3,18.4,49
					c-2.4,6.5-31.5,22.4-39.3,22.4c-1.1,0-5.8-2.7-10.7-11.1c-6.8-16.8-10.1-17.3-13.2-17.3c-6.3,0-6.1,0.6-1.2,21.5
					c2.4,10.5,1,10.3,6.9,19.1c6.1,9.2,9.7,3.2,18.3,9.8c9.8,8.4,17.3,15.6,18.2,15.6c2.3,4.2-2.4,17.7-8.1,17.8
					c-4.2,4.2-7.9,5.9-16.4,5.9c-13-4.2-7.1-10.2-5.7-1.8c1.3,8.4,0.1,14.5,8.2,14.5c9.8,0,16.3-2.3,22.8,18.7
					c3.5,8.4,4,27.8,5.2,27.9c1.6,0,13,8.3,27.9,12.4c18.1,8.4,26.3,8.3,27.1,12.4c2,4.2,5.4,20.6,3.4,20.6
					c-0.8,0-15.8-8.3-33.2-12.5c-10.6-2.5-21.7-2.8-32.4-0.8c-10.2-0.6-31.2-48.9-37.2-55.9c-10.7-12.5-29-21-38.9-35.1
					c-20.4-29,11.2-8,18.6-26.8c3.1-7.8-7.5-24.7-10.5-31.5c-5.1-11.7-12.1-24-18.3-36.5c-6.1-12.1-20.3-20.6-24.8-33.2
					c-4.7-13.3-7-27.4-6.9-41.5c0.3-23.6-11.8-18.7-15.9,0.6c-1.8,8.4,5.9,14.1,0.6,20.6c-9.5,11.6-27.3,11.9-28.8,13
					c-13.6,9.3-16,20.3-18.5,31c-2.8,12.4-6.2,23.5-15.3,34.3c-10.7,12.7-19.5,9.9-29.6,5.5c-10.5-4.5-21.1-10.3-24.6-23.1
					c-3.4-13.1-8.7-25.6-15.6-37.2c-7.1-11.6-18.1-21.3-18.1-35.7c0-19.8,0.2-28.2-20.5-33c-12.2-2.9-26.5-2.6-40.5-6
					c-13.1-3.2-26.2-8.3-39.5-10.4c-14.1-2.3-28-5.9-40.6-5.1c-13.1,0.8-11.9,3.1-6.7,16.1c2.7,6.7,9.8,10.5,15.1,15.7
					c15.8,15.5,12.3,0.6,28.8,4.6c5.3,1.3,7.8,13.4,11.1,17.4c7.4,9.1,22.1,7.8,17.8,20.9c-3.3,10-21.4,24-29.7,30.8
					c-5.3,4.3-21,4.4-34.9,8.7c-14.4,4.4-29.1,14.4-35,9.5c-5.4-4.5-7.8-12.6-10.8-18.7c-5.7-11.4-15.8-20.5-21.5-32
					s-3.4-27.3-9.1-38.8s-10.4-23.5-16.1-34.9c-4-8-14.9-16.5-24.3-15.3c-6.2,0.8-11.9,7.5-13,13.3c-1,6.2-0.6,12.5,1.2,18.5
					c6.8,21.2,15,41.9,24.8,62c8.9,18.5,22.8,34.1,39.3,47.3c10.7,8.7,23.4,14.5,37.7,15.6c7.8,0.6,27.7-2.5,32.9,6.3
					c5.6,9.4-4.6,18.8-16.2,32.1c-10.8,12.4-15.9,31.3-21.2,37.5c-9.1,10.7-22.8,20-31.2,33.6c-8.6,13.9-21.7,27.4-23.3,41.9
					c-1.9,17.3,9.4,31.9,9.7,46.3c0.2,13.5-8.9,25.3-17,42.3c-6.2,13-7.2,29.1-14,42.1c-6.7,12.9-15.9,24.3-23.9,36.5
					c-8,12-20.5,19.5-30.6,30c-6.4,6.7-13.1,17.6-24.5,24.1C1583.3,1231.3,1572.4,1235.5,1561.7,1236.6 M1621.9,596.2
					c13.8-12.6,12.3-16.5,56-12.3c15.7,4.2,28.8,7,29.8,7s-5-7.5-10.7-20c-10.9-16.8-13.4-22.4-25.6-22.4c-5.2,0-9,0.4-9,8.7
					c0,8.4,1.4,5.2-9,5.2c-5,0-11.9,6.5-19.1-1.9c-4.7-6.1,0.1-24-7-21.5c-11.6,4.2-1.1,19.3-8.6,29.4c-7.8,8.4-14.8,13.9-14.8,18.1
					c0,4.2,1.3,21.8,3.2,21.8c1,0,8.9-4.6,15.5-8.8C1623.2,599.3,1621.9,596.2,1621.9,596.2 M1871.4,592.3c1.1,0-1-9.7-1.8-13.9
					c-0.6-4.2,4.5-6.1,1.4-8.9c-2.9-2.7-4.1,2.4-8,2.4c-9,0-10.3-2.2-8.2,14.6c1.2,8.4,2,11.9,8.1,11.8
					C1866.5,598.3,1870.3,592.3,1871.4,592.3 M447.9,1136.4c-6.7-4.2-15.2-8.3-15.2-12.5c4.9-8,10-6.9,15.8-11.1
					c2.8-2.1,2-6.6,5.4-6.6c6.4,0,6.5,3.1,11.9,6.7c6.7,8.4,9.8,13.9,10.4,13.9c1.4,4.2-9.2,16.2-13.9,16.2
					C460.7,1143.1,454.6,1140.6,447.9,1136.4 M1733.2,1142.8c-10.5-8.3-22.7-14.5-23.2-14.5c-0.9-4.2,11.3-42.7,14-46.9
					c2.2-4.2,40.3-35.9,42.6-35.9c4.3,0,14.9,10.6,14.9,14.8c0,2.1-9.1,23.4-15.7,45.6c-6.8,22.9-13.2,44.8-14.5,44.8
					C1749.6,1154.9,1747.8,1151.3,1733.2,1142.8 M392.4,1098.7c-5.5-3.5-10.8-7.3-15.9-11.4c0.4-4.2,20.8-28.9,23-28.9
					c2.6,0,31.2,38.8,30.1,38.8c-1.6,4.2-19.9,11-22.7,11c-1.4,0-6.1-6.5-13.1-10.7C393.2,1096.9,392.4,1098.7,392.4,1098.7
					 M2459.4,1013.9c-7.1-1.7-15.1,0.7-22.2-1c-10.7-2.6-21-8.1-30.5-13.5s-19.7-13.5-21.3-23.7c-2.9-18.1,10.6-23.5,27-22.8
					c11.7,0.5,24.9,7,38.2,11c16.3,4.9,31.3,10.4,38.2,12.3c11.6,3.1,27.8-0.5,36.4,7.4c8.6,7.9,4.8,21.7-2.8,30.5
					c-8.9,10.3-22.8,16.4-36.5,13C2476.6,1024.7,2468.7,1016.2,2459.4,1013.9 M2314.2,983c-2.4,0-7.9-0.4-6.8-3.4
					c8.7-24.1,22.6-45.1,24.2-45.1c2-4.2,24.2-1.4,26.2,2.8c0.8,0-6.5,13.7-13.3,26.3c-12.1,21-11.3,17.6-18.2,17.6
					C2320.5,980.4,2320.1,983,2314.2,983 M2253.1,974.7c-10.4-4.2-22.2-2.1-22.6-6.2c-0.4,0,2.7-8.9,3.4-21.5
					c0.7-10.5-5.2-12.7-0.5-22c6.7-13.1,21.5-19,22.3-19.7c8.6-8.7,21.8-5.8,33.7-0.9c13.3,5.4,21.7,12.1,15.6,24.5
					c-6,12.7,1.6,16.5-5.3,29.1C2285.3,987.2,2282.5,983.1,2253.1,974.7 M258,767.5c-7-5.2-15.3-8.2-24-8.6c-1.2,0-7.9-2.8-14.6,1.4
					c-6.7,4.2-13.6,10.8-15.3,10.8c-2.2,0-18.9-12.6-35.6-22.9c-17.4-10.7-31.7-22.7-32.4-22.7c-1.2-4.2,1.9-13.3,4.3-17.5
					c0.9,0,18.5,1.4,40,9.8c21.4,8.4,38.4,27.6,39.8,27.6c1.4,0,6.6-14.2,14.1-18.4c7.5-4.2,17-7.2,18.4-7.2c3.8,0,17.7,23,35.1,44
					c0,4.2-5.8,12.6-8.1,12.7C278.7,776.4,269.5,775.8,258,767.5 M839.6,754.4c-7.9-2.6-16.2-4-24.6-4.1c-1.9,0,2-23.4,4.4-23.4
					c1.9-4.2,48.6,10.7,51.1,10.7c2,4.2-3.5,18.2-6.8,18.2c-1.4,4.2-9.1,1.2-23.3-3C839.6,752.4,839.6,754.4,839.6,754.4
					 M2465.4,728.2c-4.8-16.7-10-35.6-9.2-35.6c3.2,0,3.2,2.8,6.4,2.8c3.6,0,10.6,6.8,21.1,23.6c7.6,8.4,6,11.3,12.1,22.5
					c0.4,0-18.2,13.1-20.6,13.1C2473.9,754.6,2470.6,745,2465.4,728.2 M71.3,700.9c-2.5-4.2-20.1-32.6-20.1-36.8
					c0-4.2,7.7,0.2,30.8,8.5c12.5,4.2,24.6,8.7,24.3,8.7c-0.7,4.2-30.5,20.1-33.2,20.1c-1.6,0-0.2-2.1-1.6-2.8
					C70.7,698.3,71.3,700.9,71.3,700.9 M2386.7,686c-4.8-8.4-12.7-12.2-12.3-12.2c0.4-4.2,17.4-11.9,34.3-20.3
					c17.3-12.6,32.1-23.4,33.3-23.4c1.6,0,7.5-14.4,13.2-31.2c5.6-16.8,10.9-30.1,12.2-30.1c2,0,4.7-0.9,18.4,7.5
					c9.6,8.4,24.2,8.1,24.6,8.1c0.4,2.2-18.6,18.1-28.5,35.2c-9.1,15.5-10.1,36.8-13.2,40.8c-1.2,2.1-19.9,11.2-36.5,20.1
					c-16.8,9-35.1,9.9-36.8,9.9c-0.4,0-1-2.3-6.3-6.5C2388.6,683.1,2386.7,686,2386.7,686 M2521.6,555.5c-4.4-4.2-7.4-9.2-4.9-9.2
					c3.2-4.2,43.2-18.6,46.4-18.7c3.2,0,11.9,2.5,19,10.9c0,4.2-48.7,26.3-53.9,26.3c-1.2,0-1.6-5-4.4-9.1
					C2523.4,554.9,2521.6,555.5,2521.6,555.5 M1354.4,496.8c-0.6,0-1-8,1.8-12.2c6.4-12.6,8.7-15.7,1.3-19.8
					c-3.4-4.2-11.3-10.9-15.7-15.1c-4.1-4.1-6.9-4-6.2-9.9c1-8.3,7.4-4.1,12.7-10.3c7.2-8.3,6.1-13.1,7.7-8.9
					c1.3,0,11.9,4.6,14.8,13c4.9,12.6-1.5,19,11.8,31.6c7.2,6.5,17.7-2.9,22.3,5.8c3,5.5-1.9,8.9-2.5,15.2
					c-0.8,8.4-9.3,9.6-10.5,9.6c-1.3,4.2-6.8,1.8-17.3,1.8c-14.7,0-16.8,4.6-17.6,0.4C1357,497.3,1354.4,496.8,1354.4,496.8
					 M3.8,364.6c-0.8,0-3.7-17.1-3.8-40.2c-0.1-13.5,2.7-28.6,2.9-42.1c0.3-23.1,0.6-44.1,1.5-44.1c0.7,0,14,8,33.4,15.4
					c10,3.8,20.4,11,32.6,15.3c16.5,7,16.4,7,32.8,14.3s20.8-1.9,36.4,7.1c4.7,2.7-2.9,11.8,0.2,16.4c4,8.4,12.3,13.8,12.4,18
					c-24.6,2.1-25.1-1.8-49.8-1.8c-47.3,0-51.3-7.7-60.2-3.5c-5.2,0-13,3.8-12.8,9.2c0.3,8.3,7.8,10.5,13.3,14.7
					c3.1,2.4,6.8,3.8,10.6,4c-0.6,0-10,12.9-22.6,17.1c-24.6,8.4-25.6,6.3-27.5,2.1C2.8,365.8,3.8,364.6,3.8,364.6 M1086.3,360.4
					c-9.9-4-23-11.8-35.2-30.8c-12.9-21-21.9-43.6-22.5-43.6c-0.7,0-7.7-24.5-13.1-53.9c-3.3-15.4-3.4-34.8-10.4-50.6
					c-6.7-15.1-17.1-30.8-36.4-35.1c-15.4-3.4-25.9,14-42,8.2c-29.5-10.5-24.8-35.5-10.9-54.4c7.3-10,23.9-15.7,33.1-27.5
					s12.8-30.3,24.1-36.4c10.6-5.7,25.5-5,37.5-6.7c15.9-2.3,32.7,3.5,48.7,1.4s31.8-4.1,47.7-6.1c15.2-1.9,30.2-6,45.4-8
					s30.8-0.3,46-2.2c16.3-2,31.3-14.3,46.5-14.9c15.6-0.6,31.3,3.6,46,13.9c11.9,8.4,23.1,21.4,32.8,30.9
					c11.5,11.3,15.1,15.7-1.7,31.1c-20.8,19-20.2,35.9-22.5,63c-1.8,21,0.4,42.6-0.6,42.6c-1,4.2-11.1,27.6-26.8,52.8
					c-9,15.8-22.6,20.6-30.5,29.1c-8.1,8.7-13.3,22.4-30.5,28.6c-13.3,4.8-29.4,4-42,10.8c-13,7-19.3,21.5-28.2,33
					C1121.8,360.2,1102.9,367.2,1086.3,360.4 M1232.4,359c-6.2-7.5-16.7-17.2-12.9-25.9c2.9-6.7,18.4-11,32.2-14
					c13.5-2.9,28.5-5.5,34.6-2.2c5.4,2.9,15.3,14,16.8,19.8c3,11.7-16.9,20.5-25,26.4c-16.2,11.9-28.1,14.6-41.4-1.2
					C1235.7,360.8,1233.5,360.4,1232.4,359"/>
			</g>
		</g>
		<g>
			<defs>
				<rect id="SVGID_00000080894451435117772200000000997956814692658061_" width="2743.5" height="1418.1"/>
			</defs>
			<clipPath id="SVGID_00000130614826161704709180000015408260063195820719_">
				<use xlink:href="#SVGID_00000080894451435117772200000000997956814692658061_"  style="overflow:visible;"/>
			</clipPath>
		</g>
	</g>
</g>

</svg>
